<svg class="user-icon" version="1.1" id="Capa_1" xmlns="http://www.w3.org/2000/svg" xmlns:xlink="http://www.w3.org/1999/xlink" x="0px" y="0px" viewBox="0 0 512 512" style="enable-background:new 0 0 512 512;" xml:space="preserve" width="50"  height="50" ><path d="M418.651,431.634c-8.576-56.229-45.769-103.945-98.194-125.989c42.679-35.547,48.457-98.962,12.91-141.641s-98.962-48.457-141.641-12.91s-48.457,98.962-12.91,141.641c3.904,4.69,8.229,9.006,12.91,12.91c-49.783,21.12-86.007,65.344-96.914,118.309c-2.021,9.893,4.37,19.557,14.263,21.577c9.893,2.021,19.557-4.37,21.577-14.263c14.153-69.257,81.774-113.938,151.04-99.785c52.407,10.706,92.626,52.873,100.846,105.728c1.408,8.978,9.198,15.561,18.286,15.451h2.834C413.595,450.981,420.306,441.582,418.651,431.634z M192,228.571c0-35.346,28.654-64,64-64s64,28.654,64,64s-28.654,64-64,64S192,263.918,192,228.571z" fill="#BC5C79"></path><path d="M256,512C114.615,512,0,397.385,0,256S114.615,0,256,0s256,114.615,256,256S397.385,512,256,512z M256,36.571c-121.189,0-219.429,98.24-219.429,219.429S134.811,475.429,256,475.429S475.429,377.189,475.429,256S377.189,36.571,256,36.571z" fill="#BC5C79"></path><g fill="#BC5C79"></g></svg>